<?xml version="1.0" encoding="UTF-8" standalone="no" ?>
<!DOCTYPE svg PUBLIC "-//W3C//DTD SVG 1.1//EN" "http://www.w3.org/Graphics/SVG/1.1/DTD/svg11.dtd">
<svg xmlns="http://www.w3.org/2000/svg" xmlns:xlink="http://www.w3.org/1999/xlink" version="1.1" width="300" height="130" viewBox="0 0 300 130" xml:space="preserve">
<desc>Created with Fabric.js 3.6.6</desc>
<defs>
</defs>
<g transform="matrix(1 0 0 1 149.62 65.46)" id="_Compound_Path_"  >
<path style="stroke: none; stroke-width: 1; stroke-dasharray: none; stroke-linecap: butt; stroke-dashoffset: 0; stroke-linejoin: miter; stroke-miterlimit: 4; fill: rgb(255,255,255); fill-rule: evenodd; opacity: 1;"  transform=" translate(-147.72, -68.05)" d="M 274.806 20.906 a 1.614 1.614 0 0 1 -1.632 1.7 c -14.876 1.843 -32.211 9.912 -40.716 37.529 c -0.236 0.77 -0.475 1.583 -0.711 2.428 c 8.5 -2.342 17.737 -5 20.648 -5 c 3.589 0 5.009 2.391 5.009 3.907 c 0 1.067 -1.127 1.835 -4.068 2.359 c -6.682 1.19 -15.064 3.2 -23.223 5.181 c -2.731 11.79 -5.291 28.066 -7.153 46.179 c -0.2 1.988 -0.832 3.8 -3.074 3.8 a 3.967 3.967 0 0 1 -4.3 -4.325 c 0 -2.624 4.352 -29.329 7.5 -43.95 c -4.968 1.194 -9.622 2.277 -13.482 3.034 a 252.9 252.9 0 0 0 -3.058 29.435 A 2.352 2.352 0 0 1 204 105.6 a 4.341 4.341 0 0 1 -4.3 -4.385 c 0 -0.817 0.36 -4.858 1.53 -13.689 c -2.833 3.241 -7.9 5.727 -11.275 5.727 c -3.41 0 -5.068 -2.37 -5.068 -7.469 a 27.508 27.508 0 0 1 0.186 -3.312 c 0.141 -1.238 -0.447 -1.986 -2.974 -2.671 c -3.676 11.57 -9.507 15.854 -14.462 15.854 a 5.909 5.909 0 0 1 -5.857 -4.189 c -3.171 4.953 -6.62 6.843 -10.072 6.843 a 6.917 6.917 0 0 1 -6.847 -6.2 c -3.3 4.636 -7.276 8.788 -11.022 8.788 c -2.636 0 -3.394 -1.9 -3.394 -4.325 c 0 -3.223 1.374 -7.52 1.374 -9.4 c 0 -0.673 -0.147 -0.964 -0.529 -0.964 c -2.7 0 -13.926 19.364 -19.69 19.364 c -2.144 0 -3.479 -1.652 -3.479 -4.248 a 42.9 42.9 0 0 1 1.2 -8.019 c -7.1 8.18 -14.5 14.015 -20.754 14.015 c -5.523 0 -9.611 -3.549 -9.611 -9.416 c 0 -5.108 3.494 -11.1 8.23 -15.893 a 202.617 202.617 0 0 0 -19.276 8.842 c 3.091 1.82 5.059 4.347 5.059 7.982 c 0 10.99 -24.64 19.657 -35.894 19.657 c -4.836 0 -9.3 -2.678 -9.3 -5.824 c 0 -3.778 11.486 -11.981 25.8 -19.929 c -13.525 -1.3 -32.946 -0.884 -32.946 -11.621 c 0 -15.231 36.262 -29.668 56.058 -29.668 c 11.327 0 15.58 4.01 15.58 6.5 c 0 1.119 -0.876 1.93 -2.36 1.93 c -3.243 0 -4.337 -2.551 -11.9 -2.551 c -20.689 -0.257 -48.4 14.161 -48.4 22.863 c 0 5.91 19.3 4.629 32.144 8.193 c 16.024 -8.185 33.436 -15.1 41.813 -15.1 c 3.364 0 5.453 1.8 5.453 3.857 c 0 1.693 -0.863 2.652 -1.838 2.652 c -1.8 0 -2.222 -1.574 -4.424 -1.574 c -5.811 0 -15.985 14.081 -15.985 20.166 a 2.2 2.2 0 0 0 2.332 2.378 c 5.989 0 15.253 -8.773 22.765 -17.195 c 0.377 -1.266 0.772 -2.542 1.183 -3.81 c 8.585 -26.481 15.792 -39.211 20.654 -39.211 c 1.537 0 2.709 1.442 2.709 3.34 c 0 5.418 -6.934 20.643 -16.206 34.817 c -1.652 4.817 -2.991 9.687 -2.991 12.514 c 0 0.492 0.072 0.811 0.581 0.811 c 2.083 0 12.316 -16 17.992 -16 c 1.641 0 3.136 0.867 3.136 4.241 c 0 2.8 -1.545 7.971 -1.545 10.453 c 0 0.783 0.247 1.022 0.681 1.022 c 1.866 0 5.321 -4.038 8.07 -7.462 c 5.547 -6.912 10.606 -9.963 15.762 -9.963 c 3.061 0 4.446 1.774 3.958 3.7 v 0 a 3.639 3.639 0 0 1 3.223 3.737 c 0 0.845 -0.687 3.573 -0.687 5.638 c 0 1.429 0.405 1.837 1.194 1.837 c 2.029 0 5.091 -2.874 7.989 -11 c 1.613 -4.521 2.638 -5.867 4.541 -5.867 c 1.927 0 4.2 1.158 6.318 2.682 c 2.248 1.621 3.069 3.918 3.069 7.16 c 0 3.754 0.639 4.284 2.159 4.284 c 3.037 0 8.492 -4.976 9.309 -9.411 c 0.219 -1.19 0.286 -1.583 0.429 -2.357 c -5.325 0.448 -8.59 -1.432 -8.59 -3.066 c 0 -1.128 0.949 -1.524 2.176 -1.673 c 1.684 -0.2 3.323 0.248 7.357 -0.28 c 0.251 -1.341 0.5 -2.648 0.733 -3.913 c 5.919 -32.009 20.19 -40.584 26.539 -40.584 c 2.334 0 4.047 1.751 4.047 3.333 a 1.982 1.982 0 0 1 -1.335 1.971 c -13 4.9 -18.385 16.322 -23.06 34.89 c -0.23 0.91 -0.453 1.9 -0.672 2.937 c 3.945 -0.983 8.878 -2.342 13.965 -3.762 q 0.494 -1.9 1.027 -3.8 C 234.61 28.75 256.879 17.09 268.159 17.09 C 273.536 17.09 274.88 18.692 274.806 20.906 Z M 246.965 90.2 c 0 2.119 -1.871 6.156 -5.18 6.156 c -2.246 0 -4.06 -1.546 -4.06 -3.133 c 0 -2.965 2.389 -6.63 5.211 -6.63 A 3.8 3.8 0 0 1 246.965 90.2 Z M 66.338 98.272 c 0 -2.027 -1.721 -3.292 -4.487 -4.138 c -10.5 5.878 -20.028 12.311 -26.079 17.853 C 48.012 111.9 66.338 103.905 66.338 98.272 Z M 162.9 78.759 c -6.466 1.721 -11.137 7.52 -11.137 11.4 a 1.546 1.546 0 0 0 1.617 1.753 C 156.935 91.911 160.911 86.042 162.9 78.759 Z" stroke-linecap="round" />
</g>
</svg>